User Type,Username,Date,Text
[T],lyndavilla,2011-06-20T17:00Z,"Description:

      Martin was a normal teenage boy before the country collapsed in an empty pit of economic and political disaster. A vampire epidemic has swept across what is left of the nation's abandoned towns and cities, and it's up to Mister, a death dealing, rogue vampire hunter, to get Martin safely north to Canada, the continent's New Eden.

      General
      Complete name                    : Stake.Land.2010.DVDSCR.XviD-SiC.avi
      Format                           : AVI
      Format/Info                      : Audio Video Interleave
      File size                        : 702 MiB
      Duration                         : 1h 38mn
      Overall bit rate                 : 993 Kbps
      Writing application              : VirtualDubMod 1.5.4.1 (build 2178/release)
      Writing library                  : VirtualDubMod build 2178/release

      Video
      ID                               : 0
      Format                           : MPEG-4 Visual
      Format profile                   : Advanced Simple@L5
      Format settings, BVOP            : 1
      Format settings, QPel            : No
      Format settings, GMC             : No warppoints
      Format settings, Matrix          : Custom
      Codec ID                         : XVID
      Codec ID/Hint                    : XviD
      Duration                         : 1h 38mn
      Bit rate                         : 867 Kbps
      Width                            : 672 pixels
      Height                           : 288 pixels
      Display aspect ratio             : 2.35:1
      Frame rate                       : 23.976 fps
      Color space                      : YUV
      Chroma subsampling               : 4:2:0
      Bit depth                        : 8 bits
      Scan type                        : Progressive
      Compression mode                 : Lossy
      Bits/(Pixel*Frame)               : 0.187
      Stream size                      : 613 MiB (87%)
      Writing library                  : XviD 63

      Audio
      ID                               : 1
      Format                           : MPEG Audio
      Format version                   : Version 1
      Format profile                   : Layer 3
      Mode                             : Joint stereo
      Codec ID                         : 55
      Codec ID/Hint                    : MP3
      Duration                         : 1h 38mn
      Bit rate mode                    : Variable
      Bit rate                         : 114 Kbps
      Nominal bit rate                 : 128 Kbps
      Channel(s)                       : 2 channels
      Sampling rate                    : 48.0 KHz
      Compression mode                 : Lossy
      Stream size                      : 80.4 MiB (11%)
      Alignment                        : Aligned on interleaves
      Interleave, duration             : 24 ms (0.58 video frame)
      Interleave, preload duration     : 492 ms
      Writing library                  : LAME3.98r
      Encoding settings                : -m j -V 4 -q 2 -lowpass 17 --abr 128"
,richardpa,2011-06-20T18:28Z,"Decent DVDSCREENER and a really fast download...
A/9
V/8
The picture's been slightly cropped to remove some of the ""Property of... Do not duplicate"" watermark that's pops up now and again at the top of the screen...  Apart from that the picture and audio are pretty decent for an early copy screener... and it's certainly a watchable copy...
Many Thanx to lyndavilla for the decent rip and Thanx to all the seeders for a super quick download...:)"
